# xmcd CD database file
#
# Track frame offsets:
#	150
#	76603
#	125228
#	165053
#	189780
#	233903
#	279628
#
# Disc length: 4107 seconds
#
# Revision: 2
# Processed by: cddbd v1.4b41PL1 Copyright (c) Steve Scherf et al.
# Submitted via: Feurio! 1.50.2ß - http://www.feurio.com
#
DISCID=4b100907
DTITLE=Grateful Dead - Omni Atlanta, GA 5/30/94 Disc 2
DYEAR=1900
DGENRE=
TTITLE0=Fire On The Mountain
TTITLE1=Playing In The Band
TTITLE2=Dark Star
TTITLE3=I Need A Miracle
TTITLE4=Stella Blue
TTITLE5=Sugar Magnolia
TTITLE6=Liberty
EXTD=
EXTT0=
EXTT1=
EXTT2=
EXTT3=
EXTT4=
EXTT5=
EXTT6=
PLAYORDER=
